<svg width="136" height="55" viewBox="0 0 136 55" fill="none" xmlns="http://www.w3.org/2000/svg">
<path fill-rule="evenodd" clip-rule="evenodd" d="M25.542 1.6665L25.7567 3.1915C18.9027 17.0538 27.6427 15.9253 27.6427 15.9253L28.7467 15.727L28.9154 16.0625C45.1534 14.2325 54.0314 22.6353 54.0314 22.6353C55.212 2.74925 25.542 1.6665 25.542 1.6665Z" fill="#F8B829"/>
<path d="M15.3455 48.4993C14.6555 53.0743 18.4122 55.7277 19.0102 54.2637C20.6662 52.1135 21.2488 52.7387 22.0768 49.5057C22.3791 49.1043 22.7292 48.7407 23.1195 48.423C23.9577 47.5588 24.7653 46.6743 25.5422 45.7695C27.8336 43.1914 29.7911 40.3377 31.3688 37.2752C33.1193 34.1831 33.7575 30.5898 33.1782 27.0883C32.551 25.317 31.6566 23.6509 30.5255 22.1472C30.1802 21.36 30.0228 20.504 30.0655 19.6462C30.0275 18.3631 29.6407 17.1141 28.9462 16.032C28.5876 15.6475 28.3148 15.1919 28.1457 14.6952C27.9766 14.1985 27.915 13.6718 27.9648 13.1498C28.1642 11.9908 28.1642 10.847 28.3328 9.688C28.4391 7.52229 28.0402 5.36148 27.1675 3.3745C27.1675 3.3745 26.0942 1.4835 25.1435 1.95625C23.4509 0.890402 21.4836 0.336026 19.4804 0.360389C17.4771 0.384752 15.5241 0.986806 13.8582 2.0935C13.8582 2.0935 -8.09917 16.0473 11.6962 42.8568C11.0982 46.3338 13.2295 49.9175 14.8855 52.2965" fill="#005D86"/>
<path d="M25.45 17.8926L22.4753 4.41157C22.4753 4.41157 20.7273 -0.77343 16.1273 5.76882L15.3607 4.76232C11.1287 10.7251 5.39398 17.8773 6.66665 25.6243C6.85176 27.0543 7.34827 28.4268 8.12156 29.6463C8.89485 30.8658 9.9263 31.9028 11.144 32.6851C12.9384 33.9244 15.1108 34.5033 17.2878 34.3225C19.4649 34.1416 21.5106 33.2121 23.0733 31.6938C25.4653 29.7113 27.4126 25.6853 25.45 17.8926Z" fill="white"/>
<path fill-rule="evenodd" clip-rule="evenodd" d="M28.9152 16.1083C28.9152 16.1083 43.1138 13.9123 54.0312 22.681C54.0312 22.681 43.7578 9.27627 27.3818 11.762C27.3972 11.762 26.2165 15.056 28.9152 16.1083Z" fill="#F19320"/>
<path d="M54.0316 22.6811C54.3202 19.222 53.4407 15.766 51.5323 12.86C51.3789 12.6618 50.1983 15.2238 50.183 15.4526C50.1202 16.5211 50.382 17.5838 50.9343 18.5026C51.7163 19.9361 53.6176 21.1103 54.0009 22.6505" fill="#E95253"/>
<path d="M0.533203 42.0486C2.54016 42.8082 4.73008 42.9516 6.81987 42.4603C9.74854 42.8568 11.2819 43.7718 14.7779 44.1683C19.0559 44.1683 23.3032 43.7108 27.5505 43.3143C28.9305 43.1923 31.9972 43.0246 33.1625 44.1073C33.8372 44.7326 33.6379 46.4253 33.6532 47.3098C31.1185 46.3486 28.4497 45.7828 25.7412 45.6323C22.6745 45.6323 19.5005 45.7696 16.3879 45.7391C14.2647 45.7453 12.1453 45.5616 10.0552 45.1901C8.10787 44.8241 6.1912 44.3208 4.24387 43.9243C2.8332 43.6193 1.11587 43.3753 0.533203 42.0486Z" fill="#9B5F48"/>
<path d="M27.8728 44.7935C27.8728 45.2815 27.4435 46.3185 27.0448 46.3185C26.6461 46.3185 26.2168 45.2967 26.2168 44.7935V43.0702C26.2168 42.5822 26.5235 42.0942 26.9221 42.0942C27.1632 42.1309 27.385 42.247 27.5518 42.424C27.7187 42.601 27.8209 42.8286 27.8421 43.0702L27.8728 44.7935Z" fill="#969595"/>
<path d="M26.2163 45.0375C26.2163 45.4187 25.9097 46.2117 25.5877 46.2117C25.2657 46.2117 24.959 45.4187 24.959 45.0375V43.6802C24.959 43.299 25.189 42.9177 25.511 42.9177C25.6954 42.9462 25.8639 43.0381 25.9872 43.1774C26.1104 43.3168 26.1807 43.4947 26.1856 43.6802L26.2163 45.0375Z" fill="#838383"/>
<path d="M11.0059 44.7935C11.0059 45.2815 11.4352 46.3185 11.8339 46.3185C12.2325 46.3185 12.6619 45.2967 12.6619 44.7935V43.0702C12.6619 42.5822 12.3552 42.0942 11.9565 42.0942C11.7154 42.1309 11.4937 42.247 11.3268 42.424C11.16 42.601 11.0578 42.8286 11.0365 43.0702L11.0059 44.7935Z" fill="#969595"/>
<path d="M12.6621 45.0375C12.6621 45.4187 12.9688 46.2117 13.2908 46.2117C13.6128 46.2117 13.9194 45.4187 13.9194 45.0375V43.6802C13.9194 43.299 13.6894 42.9177 13.3674 42.9177C13.183 42.9462 13.0145 43.0381 12.8913 43.1774C12.768 43.3168 12.6977 43.4947 12.6928 43.6802L12.6621 45.0375Z" fill="#838383"/>
<path d="M28.5783 11.4571C28.9463 10.5878 29.621 7.8886 27.7503 3.23735C27.413 2.5206 26.5696 0.858346 24.7756 1.71235C24.515 2.10885 28.011 4.2896 27.2903 11.9756C27.2903 11.9756 26.3856 15.1933 28.9156 16.0931C28.5391 15.3019 28.3453 14.4369 28.3483 13.5616C28.2947 12.852 28.3727 12.1387 28.5783 11.4571ZM28.4096 11.7621C28.4096 11.7621 28.4096 11.7621 28.425 11.7621H28.4096Z" fill="#003B55"/>
<path d="M25.5416 8.62048C26.2162 12.2195 24.4069 14.263 20.8189 14.3087C18.0589 14.3087 14.0416 13.7292 13.6582 10.3742C13.3362 7.46148 15.1916 3.51173 18.1662 2.62723C22.2909 1.37673 24.8976 5.08248 25.5569 8.62048H25.5416Z" fill="#F8B829"/>
<path d="M23.3487 8.36113C23.4903 8.78469 23.5202 9.23731 23.4356 9.67566C23.3509 10.114 23.1546 10.5234 22.8653 10.8647C22.576 11.2059 22.2035 11.4676 21.7834 11.6247C21.3634 11.7818 20.9098 11.829 20.4661 11.7619C18.7181 11.7619 16.2801 11.3501 16.1267 9.23038C16.0447 8.26624 16.2721 7.30105 16.7763 6.47353C17.2805 5.64602 18.0355 4.99879 18.9327 4.62488C21.4014 3.93863 22.9347 6.14988 23.3027 8.30013L23.3487 8.36113Z" fill="#005D86"/>
<path fill-rule="evenodd" clip-rule="evenodd" d="M22.0001 7.90386C22.0001 8.47212 21.7731 9.0171 21.3691 9.41892C20.9651 9.82074 20.4171 10.0465 19.8457 10.0465C19.2744 10.0465 18.7264 9.82074 18.3224 9.41892C17.9184 9.0171 17.6914 8.47212 17.6914 7.90386C17.6914 7.3356 17.9184 6.79061 18.3224 6.38879C18.7264 5.98697 19.2744 5.76123 19.8457 5.76123C20.4171 5.76123 20.9651 5.98697 21.3691 6.38879C21.7731 6.79061 22.0001 7.3356 22.0001 7.90386Z" fill="#151410"/>
<path fill-rule="evenodd" clip-rule="evenodd" d="M20.145 6.54658C20.145 6.92783 19.8076 6.54658 19.8076 6.54658C19.8076 6.54658 20.145 6.15008 20.145 6.54658Z" fill="white"/>
<path fill-rule="evenodd" clip-rule="evenodd" d="M18.9331 6.5314C18.7184 6.5314 18.6724 6.76015 18.6417 7.00415C18.5839 7.02604 18.5318 7.06054 18.4891 7.10511C18.4465 7.14968 18.4144 7.20319 18.3953 7.26171C18.3762 7.32022 18.3705 7.38226 18.3786 7.44325C18.3868 7.50424 18.4086 7.56264 18.4424 7.61415C18.4424 7.61415 19.4851 6.63815 19.5617 6.69915C19.4747 6.62879 19.3737 6.57748 19.2654 6.54857C19.1571 6.51966 19.0438 6.51382 18.9331 6.5314Z" fill="white"/>
<path d="M53.2031 41.7131C53.324 41.7103 53.444 41.7333 53.5552 41.7807C53.6663 41.8281 53.7658 41.8986 53.8471 41.9876L55.6565 43.9091C52.9118 47.3861 47.6525 48.1639 43.6351 46.6846C41.6381 45.8725 39.9335 44.4807 38.7437 42.6907C37.5539 40.9007 36.9341 38.7957 36.9651 36.6501C36.8 34.4764 37.2857 32.3026 38.3608 30.4029C39.4359 28.5032 41.0524 26.9626 43.0065 25.9751C45.023 25.0417 47.272 24.7217 49.4708 25.0555C51.6696 25.3892 53.7203 26.3617 55.3651 27.8509L53.8318 29.9249C53.0038 31.1144 51.7311 29.8029 50.8725 29.3911C49.5986 28.8071 48.178 28.6159 46.7938 28.8421C45.373 29.1344 44.0936 29.8964 43.1637 31.004C42.2338 32.1116 41.7082 33.4996 41.6725 34.9421C41.4467 36.309 41.5793 37.7107 42.0574 39.0117C42.5355 40.3127 43.343 41.469 44.4018 42.3689C45.6117 43.175 47.0518 43.5691 48.506 43.4921C49.9602 43.4151 51.3501 42.8712 52.4671 41.9419C52.6798 41.7858 52.939 41.7053 53.2031 41.7131Z" fill="white"/>
<path d="M61.8661 24.6177V47.0962H57.6494V24.6177H61.8661Z" fill="white"/>
<path d="M69.6248 31.5566V47.1116H65.4541V31.5566H69.6248Z" fill="white"/>
<path d="M70.1309 27.0426C70.1309 30.2908 64.9482 30.3061 64.9482 27.0426C64.9482 23.7791 70.1309 23.7791 70.1309 27.0426Z" fill="white"/>
<path d="M84.5444 35.0184C83.8851 35.9029 83.1797 35.3539 82.4437 35.0184C81.5364 34.5089 80.4751 34.3411 79.4537 34.5457C77.3377 35.0184 76.7244 37.1687 76.6631 39.1207C76.6017 41.0727 77.0157 43.2992 78.9477 44.0769C79.4401 44.264 79.9652 44.3509 80.4919 44.3326C81.0187 44.3143 81.5364 44.191 82.0144 43.9702C82.7657 43.6194 83.8391 42.2927 84.6211 43.3144L85.8171 44.8394C84.7365 45.9777 83.3496 46.7828 81.8216 47.1587C80.2936 47.5346 78.6892 47.4653 77.1997 46.9592C75.7317 46.3718 74.4823 45.3472 73.6231 44.0257C72.7638 42.7042 72.3367 41.1506 72.4004 39.5782C72.2572 37.9727 72.6241 36.3631 73.4494 34.9761C74.2746 33.589 75.5166 32.4944 77.0004 31.8464C78.4597 31.2867 80.0498 31.1544 81.5823 31.4652C83.1149 31.776 84.5259 32.5169 85.6484 33.6002L84.5444 35.0184Z" fill="white"/>
<path d="M92.0736 24.6177V37.3819H92.7636C92.9735 37.3918 93.1824 37.348 93.3704 37.2545C93.5583 37.161 93.719 37.0211 93.8369 36.8482L97.2869 32.2732C97.4458 32.0498 97.6577 31.8689 97.9038 31.7465C98.1499 31.6242 98.4226 31.5641 98.6976 31.5717H102.516L98.0536 37.2142C97.7242 37.6636 97.307 38.0422 96.8269 38.3274C97.2786 38.6693 97.6544 39.1002 97.9309 39.5932L102.761 47.0809H99.0043C98.7258 47.1005 98.4472 47.0441 98.1987 46.9178C97.9501 46.7915 97.7409 46.6 97.5936 46.3642L94.0669 40.6607C93.9606 40.4633 93.7969 40.3025 93.5972 40.1991C93.3975 40.0957 93.1711 40.0546 92.9476 40.0812H92.0736V47.0962H87.9336V24.6177H92.0736Z" fill="white"/>
<path d="M108.618 24.6177V37.3819H109.308C109.518 37.3918 109.726 37.348 109.914 37.2545C110.102 37.161 110.263 37.0211 110.381 36.8482L113.831 32.2732C113.99 32.0498 114.202 31.8689 114.448 31.7465C114.694 31.6242 114.967 31.5641 115.242 31.5717H119.06L114.567 37.2447C114.238 37.6941 113.82 38.0727 113.34 38.3579C113.792 38.6998 114.168 39.1307 114.444 39.6237L119.274 47.1114H115.533C115.255 47.131 114.976 47.0746 114.727 46.9483C114.479 46.8219 114.27 46.6305 114.122 46.3947L110.611 40.6759C110.505 40.4786 110.341 40.3177 110.141 40.2143C109.942 40.111 109.715 40.0699 109.492 40.0964H108.618V47.1114H104.432V24.6177H108.618Z" fill="white"/>
<path d="M127.033 51.2749C126.926 51.5415 126.736 51.7669 126.49 51.9178C126.244 52.0688 125.957 52.1374 125.669 52.1136H122.602L125.515 45.8001L119.244 31.4956H122.909C123.157 31.4843 123.403 31.5502 123.611 31.6842C123.82 31.8181 123.982 32.0134 124.074 32.2429L127.049 39.7001C127.263 40.2898 127.447 40.8795 127.601 41.4691C127.785 40.8744 127.999 40.2796 128.229 39.6849L130.989 32.2581C131.082 32.0349 131.239 31.8443 131.441 31.711C131.644 31.5778 131.882 31.5081 132.124 31.5109H135.467L127.033 51.2749Z" fill="white"/>
</svg>
