<svg width="156" height="64" viewBox="0 0 156 64" fill="none" xmlns="http://www.w3.org/2000/svg">
<path d="M10.6911 57.8413C10.6911 56.7299 10.3097 55.7929 9.55791 55.0192C8.80608 54.2456 7.89081 53.8643 6.823 53.8643C5.85325 53.8643 5.01425 54.1693 4.30601 54.7904C3.60866 55.4006 3.17282 56.1415 3.00938 57.0241H1.97425V54.0277H0.339844V61.6549H1.97425V58.5496H3.00938C3.17282 59.4757 3.60866 60.2602 4.30601 60.8813C5.00336 61.5024 5.84235 61.8184 6.823 61.8184C7.89081 61.8184 8.80608 61.437 9.55791 60.6634C10.3097 59.9007 10.6911 58.9527 10.6911 57.8413ZM9.05669 57.8413C9.05669 58.5605 8.83877 59.1597 8.40293 59.6283C7.95619 60.1077 7.43318 60.3474 6.823 60.3474C6.21282 60.3474 5.68981 60.1077 5.25397 59.6283C4.80723 59.1597 4.58931 58.5605 4.58931 57.8413C4.58931 57.1222 4.80723 56.5229 5.25397 56.0435C5.68981 55.5749 6.21282 55.3352 6.823 55.3352C7.43318 55.3352 7.95619 55.5749 8.40293 56.0435C8.83877 56.5229 9.05669 57.1222 9.05669 57.8413Z" fill="white"/>
<path d="M13.2998 54.0283V61.6556H14.9342V59.1495H16.5141C17.2987 59.1495 17.9524 58.8989 18.4645 58.4085C18.9767 57.9182 19.2382 57.308 19.2382 56.5889C19.2382 55.8589 18.9767 55.2596 18.4645 54.7584C17.9415 54.268 17.2987 54.0283 16.5141 54.0283H13.2998ZM16.4597 55.4993C16.7865 55.4993 17.0589 55.6082 17.2769 55.8153C17.4948 56.0223 17.6037 56.2838 17.6037 56.5889C17.6037 56.894 17.4948 57.1555 17.2769 57.3625C17.0589 57.5695 16.7865 57.6785 16.4597 57.6785H14.9342V55.4993H16.4597Z" fill="white"/>
<path d="M28.602 61.6556V54.0283H27.1855L23.4264 58.8771V54.0283H21.792V61.6556H23.2085L26.9676 56.8068V61.6556H28.602Z" fill="white"/>
<path d="M30.6641 60.1846V63.2355H32.2985V61.6556H36.8748V63.2355H38.5092V60.1846H37.5831V54.0283H32.2985V56.371C32.2985 56.8831 32.2549 57.3625 32.1677 57.8093C32.0806 58.2669 31.9825 58.6265 31.8844 58.8989C31.7755 59.1604 31.6556 59.4001 31.514 59.6289C31.3723 59.8468 31.2851 59.9885 31.2307 60.0538C31.1653 60.1083 31.1326 60.1628 31.0999 60.1846H30.6641ZM33.9329 56.371V55.4993H35.9487V60.1846H32.7343L32.8651 60.0538C32.9413 59.9667 33.0394 59.825 33.1593 59.618C33.2791 59.411 33.3881 59.1713 33.5079 58.8989C33.6278 58.6265 33.7259 58.256 33.8021 57.8093C33.8893 57.3625 33.9329 56.8831 33.9329 56.371Z" fill="white"/>
<path d="M47.6509 61.6556V54.0283H46.2344L42.4752 58.8771V54.0283H40.8408V61.6556H42.2573L46.0164 56.8068V61.6556H47.6509Z" fill="white"/>
<path d="M52.2213 54.0283H50.5869V56.371C50.5869 57.2862 50.8266 57.9945 51.3061 58.4957C51.7964 59.0078 52.461 59.2584 53.3109 59.2584C54.041 59.2584 54.6403 59.1168 55.1088 58.8226V61.6556H56.7432V54.0283H55.1088V57.2427L54.9235 57.3843C54.8037 57.4715 54.6185 57.5586 54.3678 57.6567C54.1172 57.7439 53.8557 57.7875 53.5833 57.7875C53.1475 57.7875 52.8097 57.6676 52.57 57.4279C52.3412 57.1773 52.2213 56.8286 52.2213 56.371V54.0283Z" fill="white"/>
<path d="M66.3257 54.0283H64.6913V57.0792H61.4225V54.0283H59.7881V61.6556H61.4225V58.5502H64.6913V61.6556H66.3257V54.0283Z" fill="white"/>
<path d="M73.2943 58.4412H71.4419L72.3681 55.9351L73.2943 58.4412ZM73.8391 59.8577L74.4928 61.6556H76.2362L73.2398 54.0283H71.4964L68.5 61.6556H70.2434L70.8971 59.8577H73.8391Z" fill="white"/>
<path d="M83.3619 54.0283H81.7275V61.6556H83.3619V59.4763L84.3426 58.3867L86.5763 61.6556H88.4831L85.4322 57.1882L88.2652 54.0283H86.3584L83.3619 57.3516V54.0283Z" fill="white"/>
<path d="M91.8012 57.8413C91.8012 57.144 92.0409 56.5447 92.5203 56.0653C92.9889 55.5749 93.5664 55.3352 94.2528 55.3352C94.9393 55.3352 95.5168 55.5749 95.9853 56.0653C96.4647 56.5447 96.7044 57.144 96.7044 57.8413C96.7044 58.5496 96.4647 59.138 95.9853 59.6174C95.5168 60.1077 94.9393 60.3474 94.2528 60.3474C93.5664 60.3474 92.9889 60.1077 92.5203 59.6174C92.0409 59.138 91.8012 58.5496 91.8012 57.8413ZM90.1123 57.8413C90.1123 58.9309 90.5155 59.8789 91.3109 60.6525C92.1063 61.4261 93.0869 61.8184 94.2528 61.8184C95.4187 61.8184 96.3993 61.4261 97.1947 60.6525C97.9902 59.8789 98.3933 58.9309 98.3933 57.8413C98.3933 56.7408 97.9902 55.8038 97.1947 55.0301C96.3993 54.2565 95.4187 53.8643 94.2528 53.8643C93.0869 53.8643 92.1063 54.2565 91.3109 55.0301C90.5155 55.8038 90.1123 56.7408 90.1123 57.8413Z" fill="white"/>
<path d="M105.088 57.3516L102.473 54.0283H101.002V61.6556H102.636V56.5889L105.088 59.6943L107.54 56.5671V61.6556H109.174V54.0283H107.725L105.088 57.3516Z" fill="white"/>
<path d="M118.699 54.0283H112.216V61.6556H113.85V55.4993H117.065V61.6556H118.699V54.0283Z" fill="white"/>
<path d="M125.669 58.4412H123.817L124.743 55.9351L125.669 58.4412ZM126.214 59.8577L126.868 61.6556H128.611L125.615 54.0283H123.871L120.875 61.6556H122.618L123.272 59.8577H126.214Z" fill="white"/>
<path d="M137.323 54.0283H135.688V57.0792H132.42V54.0283H130.785V61.6556H132.42V58.5502H135.688V61.6556H137.323V54.0283Z" fill="white"/>
<path d="M142.002 54.0283H140.367V61.6556H142.002V54.0283Z" fill="white"/>
<path d="M150.713 54.0283H147.335C146.572 54.0283 145.951 54.268 145.461 54.7475C144.97 55.2269 144.72 55.8262 144.72 56.5344C144.72 56.8395 144.774 57.1228 144.861 57.3952C144.959 57.6676 145.068 57.8746 145.199 58.0272C145.319 58.1797 145.45 58.3214 145.613 58.4521C145.766 58.5829 145.875 58.67 145.94 58.7027C145.995 58.7245 146.049 58.7572 146.082 58.7681L144.447 61.6556H146.191L147.662 58.986H149.078V61.6556H150.713V54.0283ZM146.354 56.5344C146.354 56.2293 146.452 55.9896 146.648 55.7935C146.844 55.5974 147.095 55.4993 147.389 55.4993H149.078V57.5151H147.389C147.095 57.5151 146.844 57.417 146.648 57.2318C146.452 57.0465 146.354 56.8068 146.354 56.5344Z" fill="white"/>
<path d="M5.32098 0.75H0.339844V36.7249H5.32098V23.3786C5.32098 21.1207 5.88257 19.3395 7.00577 18.0852C8.12897 16.8308 9.66726 16.1786 11.5718 16.1786C13.2078 16.1786 14.5751 16.7807 15.6739 17.9347C16.7727 19.1138 17.3343 20.5939 17.3343 22.3751V36.75H22.3398V22.3751C22.3398 19.0636 21.4364 16.4545 19.6295 14.4977C17.8226 12.5409 15.4542 11.5625 12.5729 11.5625C11.7427 11.5625 10.9125 11.6629 10.1068 11.8887C9.27658 12.1145 8.61731 12.3653 8.08013 12.6413C7.54295 12.9172 7.03019 13.2183 6.56626 13.5695C6.10233 13.9207 5.7849 14.1716 5.6384 14.3221C5.4919 14.4726 5.36981 14.573 5.32098 14.6483V0.75Z" fill="#F0145A"/>
<path d="M33.4749 0.75H28.3398V36.695H33.4749V0.75Z" fill="white"/>
<path d="M63.7624 26.168L64.0191 23.6005C64.0191 20.16 62.8894 17.2844 60.5787 14.9737C58.2679 12.6629 55.3923 11.5332 51.9519 11.5332C48.5114 11.5332 45.5331 12.7656 43.0683 15.2304C40.6035 17.6952 39.3711 20.6222 39.3711 24.114C39.3711 27.7085 40.6548 30.7895 43.171 33.357C45.6872 35.9245 48.7168 37.2082 52.2086 37.2082C53.5437 37.2082 54.7761 37.0028 56.0085 36.6434C57.2409 36.2326 58.2679 35.8218 58.9868 35.411C59.7571 34.9488 60.5273 34.4353 61.1949 33.8705C61.8624 33.3056 62.3246 32.8948 62.53 32.6381C62.7354 32.3813 62.8894 32.2273 62.9921 32.0732L59.6544 28.7355L58.8841 29.7111C58.3706 30.3273 57.4977 30.9435 56.2653 31.6111C54.9815 32.2786 53.6464 32.5867 52.2086 32.5867C50.206 32.5867 48.5114 31.9705 47.0736 30.6868C45.6358 29.403 44.7629 27.9139 44.5061 26.168H63.7624ZM51.9519 15.898C53.8518 15.898 55.3923 16.4628 56.6761 17.5412C57.9085 18.6709 58.6787 20.0573 58.9868 21.8032H44.7115C45.1737 20.0573 45.9953 18.6709 47.279 17.5412C48.5114 16.4628 50.1033 15.898 51.9519 15.898Z" fill="white"/>
<path d="M87.7114 35.2056C87.7114 37.465 87.0439 39.3136 85.6574 40.7514C84.3223 42.1378 82.6278 42.8567 80.5224 42.8567C79.5981 42.8567 78.6738 42.7027 77.8009 42.4459C76.9279 42.1892 76.2604 41.8811 75.6955 41.5216C75.1307 41.1622 74.6172 40.8027 74.1037 40.3406C73.6415 39.8784 73.3334 39.5703 73.1794 39.4163C73.0253 39.2622 72.9226 39.1082 72.8199 39.0055L69.4822 42.3432L69.893 42.8567C70.1497 43.2162 70.6119 43.6783 71.2281 44.1918C71.8443 44.654 72.5632 45.1675 73.3848 45.681C74.2064 46.1431 75.2334 46.5539 76.5171 46.9134C77.8009 47.2728 79.136 47.4782 80.5224 47.4782C84.0142 47.4782 86.8898 46.2972 89.3033 43.9351C91.6654 41.5216 92.8464 38.646 92.8464 35.1542V12.0467H87.7114V14.6142L86.8385 13.844C86.2736 13.3305 85.4007 12.817 84.1683 12.3035C82.9359 11.79 81.6008 11.5332 80.2657 11.5332C77.1333 11.5332 74.4631 12.7143 72.1524 15.1277C69.8416 17.5412 68.7119 20.4168 68.7119 23.8572C68.7119 27.2977 69.8416 30.1733 72.1524 32.5867C74.4631 35.0002 77.1333 36.1812 80.2657 36.1812C81.1386 36.1812 81.9602 36.0785 82.8332 35.8731C83.6548 35.6164 84.3223 35.3596 84.8872 35.1029C85.452 34.8461 85.9655 34.538 86.4277 34.1786C86.8898 33.8191 87.2493 33.5624 87.352 33.4597L87.7114 33.1002V35.2056ZM73.8469 23.8572C73.8469 21.7005 74.5145 19.9033 75.9009 18.4141C77.2874 16.925 78.9306 16.1547 80.7792 16.1547C82.6278 16.1547 84.271 16.925 85.6574 18.4141C86.9925 19.9033 87.7114 21.7005 87.7114 23.8572C87.7114 26.0139 86.9925 27.8112 85.6574 29.3003C84.271 30.7895 82.6278 31.5597 80.7792 31.5597C78.9306 31.5597 77.2874 30.7895 75.9009 29.3003C74.5145 27.8112 73.8469 26.0139 73.8469 23.8572Z" fill="white"/>
<path d="M119.648 36.6947V20.7762C119.648 18.1574 118.673 15.9493 116.773 14.2034C114.873 12.4062 112.408 11.5332 109.378 11.5332C108.197 11.5332 107.016 11.6873 105.886 11.9954C104.757 12.3548 103.832 12.7143 103.165 13.1251C102.497 13.5359 101.83 13.998 101.213 14.5629C100.597 15.0764 100.238 15.4358 100.032 15.6412C99.8784 15.8466 99.7243 16.0007 99.6216 16.1547L102.959 19.4925L103.627 18.6195C104.038 18.0547 104.757 17.5412 105.835 16.9763C106.913 16.4115 108.094 16.1547 109.378 16.1547C110.867 16.1547 112.1 16.6169 113.075 17.4898C114.051 18.3628 114.513 19.4925 114.513 20.7762L105.527 22.3167C103.319 22.6762 101.522 23.5491 100.289 24.9356C99.0054 26.322 98.3379 28.0166 98.3379 30.0192C98.3379 31.9192 99.1595 33.5624 100.803 35.0002C102.497 36.4893 104.551 37.2082 107.067 37.2082C107.94 37.2082 108.762 37.1055 109.584 36.8488C110.457 36.6434 111.124 36.3866 111.689 36.1299C112.254 35.8731 112.767 35.565 113.229 35.2056C113.692 34.8461 114 34.5894 114.205 34.4867C114.359 34.3326 114.462 34.1786 114.513 34.1272V36.6947H119.648ZM107.838 32.5867C106.503 32.5867 105.424 32.2786 104.654 31.6624C103.832 31.0462 103.473 30.3273 103.473 29.5057C103.473 28.6328 103.73 27.8625 104.294 27.2977C104.859 26.7328 105.63 26.322 106.554 26.168L114.513 24.8842V25.3977C114.513 27.7085 113.948 29.4544 112.767 30.7381C111.586 31.9705 109.943 32.5867 107.838 32.5867Z" fill="white"/>
<path d="M130.98 0.75H125.845V36.695H130.98V0.75Z" fill="white"/>
<path d="M154.329 14.871L154.021 14.5115C153.816 14.3061 153.507 14.0494 153.045 13.6899C152.583 13.3305 152.07 13.0224 151.505 12.6629C150.94 12.3548 150.17 12.0981 149.245 11.8413C148.321 11.6359 147.345 11.5332 146.37 11.5332C143.854 11.5332 141.8 12.2521 140.156 13.6899C138.462 15.1791 137.64 16.8223 137.64 18.7222C137.64 20.1087 137.948 21.2384 138.565 22.2654C139.181 23.241 139.951 23.9599 140.927 24.3707C141.851 24.8329 142.878 25.295 143.956 25.6545C145.035 26.0139 146.01 26.322 146.986 26.5788C147.91 26.8869 148.681 27.2463 149.297 27.7085C149.913 28.1706 150.221 28.7868 150.221 29.5057C150.221 30.43 149.862 31.2003 149.194 31.7651C148.527 32.2786 147.5 32.5867 146.113 32.5867C144.983 32.5867 143.854 32.2786 142.775 31.7651C141.697 31.2003 141.029 30.7381 140.67 30.3787C140.362 30.0192 140.105 29.7111 139.951 29.5057L136.613 32.8435L136.973 33.3056C137.229 33.6137 137.589 33.9732 138.102 34.384C138.667 34.8461 139.283 35.2569 139.951 35.6677C140.67 36.0785 141.594 36.438 142.673 36.7461C143.751 37.0542 144.932 37.2082 146.113 37.2082C148.835 37.2082 151.094 36.438 152.789 34.9488C154.483 33.4597 155.356 31.6111 155.356 29.5057C155.356 28.1193 155.048 26.9382 154.432 26.0139C153.816 25.0383 153.045 24.3194 152.07 23.8572C151.145 23.3437 150.118 22.9329 149.04 22.5735C147.962 22.214 146.986 21.8546 146.01 21.6492C145.086 21.3924 144.316 20.9816 143.7 20.5195C143.083 20.0573 142.775 19.4411 142.775 18.7222C142.775 18.0547 143.083 17.4385 143.751 16.925C144.367 16.4115 145.24 16.1547 146.37 16.1547C147.191 16.1547 148.013 16.3601 148.783 16.7196C149.605 17.079 150.17 17.3871 150.426 17.6439C150.683 17.9006 150.889 18.106 150.991 18.2087L154.329 14.871Z" fill="white"/>
</svg>
