<svg width="42" height="48" viewBox="0 0 42 48" fill="none" xmlns="http://www.w3.org/2000/svg">
<path fill-rule="evenodd" clip-rule="evenodd" d="M6.26379 47.4957H0.359375C0.359375 47.4957 11.1138 14.3853 13.6251 6.65607C14.8 3.03975 18.1682 0.591309 21.9687 0.591309H32.5244C35.7076 0.591309 38.3642 1.93635 40.0161 4.20924C41.6667 6.48225 42.1349 9.39064 41.1724 12.3577C40.2086 15.3247 39.2982 18.1255 38.4648 20.6917C37.3396 24.1567 34.2222 26.5443 30.618 26.7385C30.618 26.7385 30.5993 26.7324 35.6493 11.1837C36.0951 9.81157 35.9324 8.46851 35.2319 7.50526C34.5327 6.54214 33.3528 5.97211 31.7916 5.97211H22.7338C20.9553 5.97211 19.3792 7.11787 18.829 8.81018L6.26379 47.4957Z" fill="#F0145A"/>
</svg>
